<?xml version="1.0" encoding="utf-8"?>
<!-- Generator: Adobe Illustrator 19.0.0, SVG Export Plug-In . SVG Version: 6.00 Build 0)  -->
<svg version="1.1" id="Capa_1" xmlns="http://www.w3.org/2000/svg" xmlns:xlink="http://www.w3.org/1999/xlink" x="0px" y="0px"
	 viewBox="0 0 536.6 443.7" style="enable-background:new 0 0 536.6 443.7;" xml:space="preserve">
<style type="text/css">
	.st0{display:none;fill:#FFFFFF;}
	.st1{fill:#020101;}
</style>
<g>
	<path class="st0" d="M87.6,443.7c0-147.9,0-295.8,0-443.7c149.7,0,299.3,0,449,0c0,147.9,0,295.8,0,443.7
		C386.9,443.7,237.2,443.7,87.6,443.7z M260.9,209.5c0,0.1,0,0.1-0.1,0.2c0.2-0.1,0.4-0.2,0.6-0.2c0.3-0.1,0.5-0.1,0.8-0.1
		c12.1-0.4,24.1-1.5,36.1-3.4c9.1-1.4,18.1-3.6,26.8-6.4c8.6-2.8,16.7-6.7,24.2-11.6c12.4-8.1,20.8-19.5,24.8-33.7
		c3.8-13.7,3.7-27.5-1-41.2c-4.7-13.4-13-23.8-25-31.4c-8-5.1-16.6-9-25.7-11.8c-8.4-2.6-17-4.7-25.7-5.8
		c-9.4-1.2-18.9-2.1-28.4-2.9c-5.9-0.5-11.9-0.5-17.8-0.7c1.1,0.4,2.2,0.5,3.2,0.7c8.6,1.1,15.6,5.2,21.3,11.6
		c5.1,5.7,8,12.6,10.2,19.9c3.2,10.6,4.5,21.5,4.8,32.5c0.2,7.5,0.1,15.1-0.2,22.6c-0.3,9.5-1.6,18.9-4.2,28.1
		c-2.5,8.7-5.8,17-12.5,23.5c-5,4.9-10.8,8.2-17.8,9.5c-1.7,0.3-3.5,0.5-5.3,0.8c0.1,0.1,0.1,0.2,0.1,0.2c0.3,0,0.6,0.1,0.8,0.1
		c9.8,0.6,17.9,4.9,24.3,12.2c4.9,5.6,7.7,12.4,9.9,19.5c3.2,10.6,4.6,21.6,4.8,32.6c0.2,8.9,0,17.8-0.4,26.7
		c-0.4,8.5-1.7,16.9-4.2,25c-2.6,8.6-6,16.7-12.8,23c-3.5,3.2-7.3,6-11.9,7.4c-3.1,1-6.4,1.6-9.5,2.4c0.4-0.1,0.8-0.1,1.2-0.1
		c7.2-0.3,14.4-0.3,21.6-1c8.7-0.7,17.3-1.8,26-3c8.1-1.1,16-3.3,23.8-5.7c10.6-3.3,20.6-8.1,29.5-14.8c10.6-8,17.3-18.7,21.2-31.3
		c1.4-4.7,2-9.6,2.2-14.5c0.3-8.8-0.3-17.4-3.2-25.8c-4.7-13.7-13.1-24.3-25.3-32c-7.8-4.9-16.1-8.7-24.9-11.5
		c-11.1-3.5-22.5-5.8-34-7.1C279.7,210.9,270.3,210.3,260.9,209.5z"/>
	<path d="M260.9,209.5c9.4,0.8,18.9,1.4,28.3,2.4c11.6,1.3,22.9,3.6,34,7.1c8.8,2.8,17.1,6.6,24.9,11.5c12.2,7.7,20.6,18.3,25.3,32
		c2.9,8.4,3.6,17,3.2,25.8c-0.2,4.9-0.8,9.8-2.2,14.5c-3.8,12.6-10.6,23.3-21.2,31.3c-8.9,6.7-18.8,11.5-29.5,14.8
		c-7.8,2.4-15.7,4.6-23.8,5.7c-8.6,1.2-17.3,2.3-26,3c-7.2,0.6-14.4,0.7-21.6,1c-0.4,0-0.8,0-1.2,0.1c3.2-0.8,6.4-1.4,9.5-2.4
		c4.6-1.4,8.4-4.2,11.9-7.4c6.8-6.3,10.3-14.4,12.8-23c2.5-8.2,3.8-16.6,4.2-25c0.4-8.9,0.6-17.8,0.4-26.7c-0.2-11-1.6-22-4.8-32.6
		c-2.1-7.1-5-13.9-9.9-19.5c-6.4-7.3-14.4-11.6-24.3-12.2c-0.3,0-0.6,0-0.8-0.1c0,0,0,0-0.1-0.2c1.8-0.3,3.6-0.5,5.3-0.8
		c6.9-1.2,12.8-4.5,17.8-9.5c6.7-6.5,10-14.8,12.5-23.5c2.6-9.2,3.9-18.6,4.2-28.1c0.2-7.5,0.4-15.1,0.2-22.6
		c-0.3-11-1.6-21.9-4.8-32.5c-2.2-7.3-5.1-14.2-10.2-19.9c-5.7-6.3-12.7-10.5-21.3-11.6c-1.1-0.1-2.2-0.3-3.2-0.7
		c5.9,0.2,11.9,0.2,17.8,0.7c9.5,0.8,18.9,1.7,28.4,2.9c8.7,1.1,17.3,3.2,25.7,5.8c9.1,2.8,17.6,6.7,25.7,11.8
		c12,7.6,20.3,18,25,31.4c4.7,13.7,4.8,27.5,1,41.2c-4,14.2-12.4,25.5-24.8,33.7c-7.5,5-15.6,8.9-24.2,11.6
		c-8.8,2.8-17.7,5-26.8,6.4c-12,1.9-24,3-36.1,3.4c-0.3,0-0.6,0-0.8,0.1c-0.2,0-0.4,0.1-0.6,0.2
		C260.8,209.7,260.8,209.6,260.9,209.5z"/>
</g>
<g>
	<path d="M87.1,59.3l64.6,301.3H65.6L1,59.3H87.1z M237.8,59.3l-64.6,215.2V59.3H237.8z"/>
</g>
<g>
	<path class="st1" d="M35.8,378.8l-13.4,34.9c-0.2,0.7-0.7,1.1-1.5,1.1h-5.8c-0.7,0-1.2-0.4-1.5-1.1L0.1,378.8
		c-0.3-0.7-0.1-1.1,0.7-1.1l8,0.1c0.7,0,1.2,0.4,1.4,1.1l7.7,22.4l7.6-22.4c0.2-0.7,0.7-1.1,1.5-1.1h8
		C35.9,377.7,36.1,378.1,35.8,378.8z"/>
	<path class="st1" d="M40.6,413.7v-34.9c0-0.7,0.4-1.1,1-1.1h7.5c0.7,0,1.1,0.4,1.1,1.1v34.9c0,0.7-0.4,1.1-1.1,1.1h-7.5
		C40.9,414.8,40.6,414.4,40.6,413.7z"/>
	<path class="st1" d="M81.1,404.4c0.4-0.3,0.7-0.4,1-0.5c0.3,0,0.6,0.1,0.8,0.5l4.1,6c0.3,0.4,0.4,0.7,0.3,0.9
		c-0.1,0.2-0.3,0.5-0.6,0.7c-1.3,1-2.9,1.8-4.7,2.4c-1.8,0.6-3.8,1-6.1,1c-2.6,0-5.1-0.5-7.4-1.5c-2.3-1-4.4-2.4-6.1-4.1
		c-1.7-1.7-3.1-3.8-4.1-6.1c-1-2.3-1.5-4.8-1.5-7.4c0-2.7,0.5-5.1,1.5-7.4s2.4-4.3,4.1-6c1.7-1.7,3.8-3.1,6.1-4.1
		c2.3-1,4.8-1.5,7.4-1.5c2.3,0,4.3,0.3,6.1,1c1.8,0.7,3.4,1.5,4.8,2.5c0.3,0.2,0.4,0.4,0.4,0.6c0,0.3,0,0.5-0.1,0.6l-4.3,6.2
		c-0.2,0.3-0.4,0.4-0.7,0.4c-0.3,0-0.6-0.1-0.8-0.4c-0.8-0.7-1.7-1.1-2.5-1.4c-0.8-0.3-1.8-0.4-2.8-0.4c-1.4,0-2.7,0.3-3.9,0.8
		c-1.2,0.5-2.2,1.2-3.1,2.1c-0.9,0.9-1.5,1.9-2,3.1s-0.7,2.5-0.7,3.9c0,1.4,0.2,2.7,0.7,3.9s1.2,2.3,2,3.2c0.9,0.9,1.9,1.6,3.1,2.1
		c1.2,0.5,2.5,0.8,3.9,0.8c1.1,0,2-0.2,2.9-0.5C79.7,405.2,80.5,404.8,81.1,404.4z"/>
	<path class="st1" d="M124.9,378.9L113,393.7l13.2,20c0.5,0.8,0.4,1.1-0.4,1.1h-9.4c-0.4,0-0.7-0.1-0.9-0.3
		c-0.2-0.2-0.4-0.5-0.6-0.8l-8.2-12.7l-3.6,4.4v8.2c0,0.7-0.4,1.1-1.1,1.1h-7.5c-0.7,0-1-0.4-1-1.1v-34.9c0-0.7,0.4-1.1,1-1.1h7.4
		c0.2,0,0.4,0.1,0.7,0.3c0.3,0.2,0.5,0.5,0.5,0.8v13.7l10.7-14c0.3-0.4,0.6-0.6,0.8-0.7c0.3-0.1,0.6-0.1,1-0.1h9
		c0.4,0,0.6,0.1,0.6,0.4S125.1,378.6,124.9,378.9z"/>
	<path class="st1" d="M140.3,413.7v-14l-11.8-20.9c-0.2-0.4-0.2-0.6,0-0.8c0.1-0.2,0.4-0.3,0.8-0.3h8.5c0.6,0,1.1,0.4,1.5,1.1
		l5.8,12.5l5.8-12.5c0.3-0.7,0.8-1.1,1.5-1.1h8.6c0.4,0,0.6,0.1,0.8,0.3c0.1,0.2,0.1,0.5-0.1,0.8L150,399.7v14
		c0,0.7-0.4,1.1-1.1,1.1h-7.5C140.7,414.8,140.3,414.4,140.3,413.7z"/>
	<path class="st1" d="M208.6,387.4c0,1.5-0.3,2.9-0.9,4.2c-0.6,1.3-1.4,2.4-2.5,3.3c1.6,0.9,2.9,2.1,3.9,3.8c1,1.6,1.5,3.4,1.5,5.4
		c0,1.4-0.3,2.8-0.8,4.1c-0.5,1.3-1.2,2.4-2.1,3.4c-0.9,1-2,1.8-3.3,2.3c-1.3,0.6-2.6,0.9-4.1,0.9h-16.4c-0.3,0-0.6-0.1-0.8-0.3
		c-0.2-0.2-0.3-0.5-0.3-0.8v-34.8c0-0.8,0.4-1.2,1.1-1.2h14.7c1.4,0,2.7,0.2,3.9,0.7c1.2,0.5,2.3,1.2,3.2,2c0.9,0.9,1.6,1.9,2.1,3.1
		C208.4,384.7,208.6,386,208.6,387.4z M204.2,387.4c0-1.7-0.5-3-1.6-4c-1-1-2.4-1.5-4.1-1.5H187v11.5h11.5c0.8,0,1.5-0.2,2.2-0.5
		c0.7-0.3,1.3-0.8,1.8-1.3c0.5-0.5,0.9-1.2,1.2-1.9C204.1,389,204.2,388.3,204.2,387.4z M200.2,397.7H187v12.8h13.2
		c0.8,0,1.6-0.2,2.3-0.5c0.7-0.3,1.4-0.8,1.9-1.4c0.5-0.6,1-1.3,1.3-2c0.3-0.8,0.5-1.6,0.5-2.5c0-0.8-0.2-1.6-0.5-2.4
		c-0.3-0.8-0.7-1.4-1.3-2c-0.5-0.6-1.2-1.1-1.9-1.4C201.8,397.9,201.1,397.7,200.2,397.7z"/>
	<path class="st1" d="M217.7,377.7h24c0.7,0,1.1,0.4,1.1,1.1v2c0,0.3-0.1,0.6-0.3,0.8c-0.2,0.2-0.5,0.4-0.8,0.4h-20.8v11h16.5
		c0.3,0,0.6,0.1,0.8,0.3c0.2,0.2,0.3,0.5,0.3,0.9v2c0,0.3-0.1,0.6-0.3,0.8c-0.2,0.2-0.5,0.3-0.8,0.3h-16.5v13h21
		c0.8,0,1.1,0.4,1.1,1.2v2c0,0.7-0.4,1.1-1.1,1.1h-24.2c-0.7,0-1.1-0.3-1.1-1v-34.9C216.6,378.1,217,377.7,217.7,377.7z"/>
	<path class="st1" d="M248.7,413.7v-34.8c0-0.8,0.4-1.2,1.1-1.2h14.4c1.6,0,3.2,0.3,4.6,0.9c1.4,0.6,2.7,1.5,3.7,2.5
		c1,1.1,1.9,2.3,2.5,3.7c0.6,1.4,0.9,3,0.9,4.6c0,2.4-0.6,4.5-1.9,6.4c-1.3,1.9-2.9,3.3-4.9,4.2l6.6,13.5c0.1,0.3,0.1,0.4,0.1,0.5
		c0,0.4-0.3,0.6-0.9,0.6h-2.7c-0.3,0-0.6-0.1-0.8-0.3c-0.2-0.2-0.4-0.4-0.5-0.7l-6-12.7c-0.1,0-0.3,0-0.5,0c-0.3,0-0.6,0-0.9,0
		c-0.3,0-0.6,0-1,0s-0.6,0-0.7,0H253v12.5c0,0.7-0.4,1.1-1.1,1.1h-2.1C249.1,414.8,248.7,414.4,248.7,413.7z M271.7,389.5
		c0-1-0.2-1.9-0.6-2.8s-0.9-1.7-1.6-2.4c-0.7-0.7-1.4-1.2-2.3-1.6c-0.9-0.4-1.9-0.6-2.9-0.6H253v15h11.3c1.1,0,2-0.2,2.9-0.6
		s1.7-0.9,2.3-1.6c0.6-0.7,1.2-1.5,1.5-2.4S271.7,390.5,271.7,389.5z"/>
	<path class="st1" d="M307.4,408.8v-9.2c0-0.7,0.4-1.1,1.1-1.1h2.1c0.3,0,0.6,0.1,0.8,0.3c0.2,0.2,0.3,0.5,0.3,0.8v11.1
		c0,0.2,0,0.3-0.2,0.5c-0.1,0.2-0.3,0.4-0.5,0.5l-0.1,0.1c-1.6,1.2-3.3,2.1-5.2,2.7s-4,0.9-6.2,0.9c-2.6,0-5.1-0.5-7.4-1.5
		c-2.3-1-4.3-2.4-6-4.1c-1.7-1.7-3.1-3.7-4.1-6c-1-2.3-1.5-4.8-1.5-7.4s0.5-5.1,1.5-7.4c1-2.3,2.4-4.3,4.1-6.1
		c1.7-1.7,3.8-3.1,6.1-4.1c2.3-1,4.8-1.5,7.4-1.5c2.4,0,4.6,0.4,6.8,1.3c0.4,0.2,0.9,0.4,1.5,0.7s1.1,0.5,1.7,0.8
		c0.5,0.3,1,0.6,1.3,1c0.4,0.4,0.5,0.7,0.5,1c0,0.2,0,0.4-0.1,0.5l-1.1,1.8c-0.2,0.4-0.5,0.6-0.8,0.6c-0.3,0-0.6-0.1-0.9-0.4
		c-1.2-0.9-2.6-1.6-4.1-2.1c-1.5-0.5-3.1-0.8-4.7-0.8c-2.2,0-4.2,0.4-6,1.2c-1.8,0.8-3.4,1.9-4.7,3.3c-1.3,1.4-2.3,2.9-3,4.7
		c-0.7,1.8-1.1,3.6-1.1,5.5c0,2,0.4,3.9,1.2,5.7c0.8,1.8,1.8,3.3,3.2,4.7c1.3,1.3,2.9,2.4,4.7,3.1c1.8,0.8,3.7,1.1,5.7,1.1
		c1.7,0,3.3-0.2,4.6-0.7C305.6,409.8,306.6,409.3,307.4,408.8z"/>
	<path class="st1" d="M319.8,377.7h24c0.7,0,1.1,0.4,1.1,1.1v2c0,0.3-0.1,0.6-0.3,0.8c-0.2,0.2-0.5,0.4-0.8,0.4H323v11h16.5
		c0.3,0,0.6,0.1,0.8,0.3c0.2,0.2,0.3,0.5,0.3,0.9v2c0,0.3-0.1,0.6-0.3,0.8c-0.2,0.2-0.5,0.3-0.8,0.3H323v13h21
		c0.8,0,1.1,0.4,1.1,1.2v2c0,0.7-0.4,1.1-1.1,1.1h-24.2c-0.7,0-1.1-0.3-1.1-1v-34.9C318.7,378.1,319,377.7,319.8,377.7z"/>
	<path class="st1" d="M350.8,413.7v-34.8c0-0.8,0.4-1.2,1.1-1.2h14.4c1.6,0,3.2,0.3,4.6,0.9c1.4,0.6,2.7,1.5,3.7,2.5
		c1,1.1,1.9,2.3,2.5,3.7c0.6,1.4,0.9,3,0.9,4.6c0,2.4-0.6,4.5-1.9,6.4c-1.3,1.9-2.9,3.3-4.9,4.2l6.6,13.5c0.1,0.3,0.1,0.4,0.1,0.5
		c0,0.4-0.3,0.6-0.9,0.6h-2.7c-0.3,0-0.6-0.1-0.8-0.3c-0.2-0.2-0.4-0.4-0.5-0.7l-6-12.7c-0.1,0-0.3,0-0.5,0c-0.3,0-0.6,0-0.9,0
		c-0.3,0-0.6,0-1,0s-0.6,0-0.7,0h-8.7v12.5c0,0.7-0.4,1.1-1.1,1.1h-2.1C351.2,414.8,350.8,414.4,350.8,413.7z M373.8,389.5
		c0-1-0.2-1.9-0.6-2.8s-0.9-1.7-1.6-2.4c-0.7-0.7-1.4-1.2-2.3-1.6c-0.9-0.4-1.9-0.6-2.9-0.6h-11.2v15h11.3c1.1,0,2-0.2,2.9-0.6
		s1.7-0.9,2.3-1.6c0.6-0.7,1.2-1.5,1.5-2.4S373.8,390.5,373.8,389.5z"/>
</g>
<g>
	<path d="M30.7,424.3h9.4c0.1,0,0.2,0,0.3,0.1c0.1,0.1,0.1,0.2,0.1,0.3v0.8c0,0.1,0,0.2-0.1,0.3c-0.1,0.1-0.2,0.1-0.3,0.1h-3.9v11.6
		c0,0.1,0,0.2-0.1,0.3c-0.1,0.1-0.2,0.1-0.3,0.1h-0.8c-0.1,0-0.2,0-0.3-0.1c-0.1-0.1-0.1-0.2-0.1-0.3v-11.6h-3.9
		c-0.3,0-0.4-0.1-0.4-0.4v-0.8C30.3,424.4,30.5,424.3,30.7,424.3z"/>
	<path d="M48.4,437.5v-12.8c0-0.3,0.1-0.4,0.4-0.4h5.3c0.6,0,1.2,0.1,1.7,0.3c0.5,0.2,1,0.5,1.4,0.9c0.4,0.4,0.7,0.9,0.9,1.4
		c0.2,0.5,0.3,1.1,0.3,1.7c0,0.9-0.2,1.7-0.7,2.3c-0.5,0.7-1.1,1.2-1.8,1.6l2.4,5c0,0.1,0,0.2,0,0.2c0,0.2-0.1,0.2-0.3,0.2h-1
		c-0.1,0-0.2,0-0.3-0.1c-0.1-0.1-0.1-0.1-0.2-0.3l-2.2-4.7c0,0-0.1,0-0.2,0c-0.1,0-0.2,0-0.3,0s-0.2,0-0.3,0c-0.1,0-0.2,0-0.3,0H50
		v4.6c0,0.3-0.1,0.4-0.4,0.4h-0.8C48.5,437.9,48.4,437.8,48.4,437.5z M56.9,428.6c0-0.4-0.1-0.7-0.2-1c-0.1-0.3-0.3-0.6-0.6-0.9
		c-0.2-0.3-0.5-0.5-0.9-0.6c-0.3-0.2-0.7-0.2-1.1-0.2H50v5.5h4.1c0.4,0,0.8-0.1,1.1-0.2c0.3-0.1,0.6-0.3,0.9-0.6
		c0.2-0.3,0.4-0.5,0.6-0.9C56.8,429.3,56.9,429,56.9,428.6z"/>
	<path d="M68.2,435l-1,2.6c-0.1,0.2-0.3,0.4-0.5,0.4h-0.8c-0.3,0-0.4-0.1-0.4-0.3c0,0,0-0.1,0-0.2c0,0,0,0,0-0.1
		c0.9-2.1,1.6-3.9,2.2-5.4c0.6-1.4,1.1-2.6,1.5-3.6c0.4-0.9,0.7-1.7,0.9-2.2c0.2-0.5,0.4-0.9,0.5-1.1c0.1-0.2,0.2-0.4,0.2-0.5
		c0-0.1,0.1-0.1,0.1-0.2c0.1-0.1,0.2-0.1,0.3-0.1h0.5c0.2,0,0.3,0,0.3,0.1c0.1,0.1,0.1,0.2,0.1,0.2l5.3,12.8c0,0,0,0,0,0.1
		c0,0.1,0,0.1,0,0.1c0,0.2-0.1,0.3-0.4,0.3h-0.8c-0.2,0-0.4-0.1-0.5-0.3l-1.1-2.6H68.2z M71.5,426.7l-2.7,6.7h5.4L71.5,426.7z"/>
	<path d="M87,424.7v12.8c0,0.3-0.1,0.4-0.4,0.4h-0.8c-0.3,0-0.4-0.1-0.4-0.4v-12.8c0-0.3,0.1-0.4,0.4-0.4h0.8
		C86.9,424.3,87,424.4,87,424.7z"/>
	<path d="M106.9,437.9h-0.9c-0.1,0-0.3-0.1-0.3-0.2l-8.4-11v10.8c0,0.3-0.1,0.4-0.4,0.4h-0.8c-0.3,0-0.4-0.1-0.4-0.4v-12.8
		c0-0.1,0-0.2,0.1-0.3c0.1-0.1,0.2-0.1,0.3-0.1h1c0.1,0,0.3,0.1,0.3,0.2l8.2,10.7v-10.6c0-0.2,0.2-0.3,0.4-0.3h0.8
		c0.1,0,0.2,0,0.3,0.1s0.1,0.2,0.1,0.3v12.8C107.4,437.8,107.2,437.9,106.9,437.9z"/>
	<path d="M117.6,424.7v12.8c0,0.3-0.1,0.4-0.4,0.4h-0.8c-0.3,0-0.4-0.1-0.4-0.4v-12.8c0-0.3,0.1-0.4,0.4-0.4h0.8
		C117.5,424.3,117.6,424.4,117.6,424.7z"/>
	<path d="M137.6,437.9h-0.9c-0.1,0-0.3-0.1-0.3-0.2l-8.4-11v10.8c0,0.3-0.1,0.4-0.4,0.4h-0.8c-0.3,0-0.4-0.1-0.4-0.4v-12.8
		c0-0.1,0-0.2,0.1-0.3c0.1-0.1,0.2-0.1,0.3-0.1h1c0.1,0,0.3,0.1,0.3,0.2l8.2,10.7v-10.6c0-0.2,0.2-0.3,0.4-0.3h0.8
		c0.1,0,0.2,0,0.3,0.1s0.1,0.2,0.1,0.3v12.8C138,437.8,137.8,437.9,137.6,437.9z"/>
	<path d="M155.9,435.7v-3.4c0-0.3,0.1-0.4,0.4-0.4h0.8c0.1,0,0.2,0,0.3,0.1c0.1,0.1,0.1,0.2,0.1,0.3v4.1c0,0.1,0,0.1-0.1,0.2
		s-0.1,0.1-0.2,0.2l0,0c-0.6,0.4-1.2,0.8-1.9,1s-1.5,0.3-2.3,0.3c-1,0-1.9-0.2-2.7-0.6c-0.9-0.4-1.6-0.9-2.2-1.5
		c-0.6-0.6-1.1-1.4-1.5-2.2c-0.4-0.9-0.6-1.8-0.6-2.7s0.2-1.9,0.6-2.7c0.4-0.9,0.9-1.6,1.5-2.2c0.6-0.6,1.4-1.1,2.2-1.5
		s1.8-0.6,2.7-0.6c0.9,0,1.7,0.2,2.5,0.5c0.2,0.1,0.3,0.1,0.6,0.2c0.2,0.1,0.4,0.2,0.6,0.3c0.2,0.1,0.4,0.2,0.5,0.4
		c0.1,0.1,0.2,0.2,0.2,0.4c0,0.1,0,0.1-0.1,0.2l-0.4,0.7c-0.1,0.1-0.2,0.2-0.3,0.2c-0.1,0-0.2,0-0.3-0.1c-0.5-0.3-1-0.6-1.5-0.8
		c-0.6-0.2-1.1-0.3-1.7-0.3c-0.8,0-1.5,0.2-2.2,0.5s-1.2,0.7-1.7,1.2c-0.5,0.5-0.9,1.1-1.1,1.7c-0.3,0.6-0.4,1.3-0.4,2
		c0,0.7,0.1,1.4,0.4,2.1c0.3,0.7,0.7,1.2,1.2,1.7c0.5,0.5,1.1,0.9,1.7,1.1c0.7,0.3,1.3,0.4,2.1,0.4c0.6,0,1.2-0.1,1.7-0.3
		C155.2,436.1,155.6,435.9,155.9,435.7z"/>
	<path d="M190.9,432.5c-0.2,0.7-0.5,1.2-1.1,1.6c-0.5,0.4-1.2,0.6-1.8,0.6c-0.2,0-0.4,0-0.7-0.1l-1.1-0.3c-0.1,0.6-0.2,1.2-0.5,1.7
		c-0.3,0.5-0.6,0.9-1,1.2c-0.4,0.3-0.9,0.5-1.4,0.7c-0.5,0.2-1.1,0.2-1.6,0.2c-0.6,0-1.2-0.1-1.8-0.3c-0.6-0.2-1-0.5-1.5-0.9
		c-0.4-0.4-0.8-0.8-1-1.3s-0.4-1.1-0.4-1.7c0-0.9,0.2-1.6,0.6-2.2c0.4-0.6,0.9-1.1,1.6-1.5c-0.4-0.3-0.7-0.6-0.9-1.1
		s-0.3-0.9-0.3-1.5c0-0.5,0.1-1,0.3-1.4c0.2-0.4,0.5-0.8,0.8-1.1s0.7-0.5,1.2-0.7c0.4-0.2,0.9-0.2,1.4-0.2c0.5,0,1,0.1,1.4,0.2
		c0.4,0.1,0.8,0.4,1.1,0.6c0.3,0.3,0.6,0.6,0.8,1.1c0.2,0.4,0.3,0.9,0.3,1.5c0,0.3-0.1,0.4-0.4,0.4h-0.8c-0.3,0-0.5-0.1-0.5-0.4
		c0-0.6-0.2-1.1-0.5-1.4c-0.3-0.3-0.8-0.5-1.5-0.5c-0.3,0-0.6,0.1-0.9,0.2c-0.3,0.1-0.5,0.3-0.6,0.4c-0.2,0.2-0.3,0.4-0.4,0.6
		c-0.1,0.2-0.1,0.5-0.1,0.7c0,0.5,0.2,0.9,0.5,1.3c0.4,0.4,0.8,0.6,1.4,0.6c0.3,0,0.4,0.2,0.4,0.3c0,0,0,0,0,0c0,0,0,0,0,0l-0.1,0.7
		c0,0.2-0.2,0.4-0.4,0.4c-0.9,0-1.6,0.2-2.1,0.7c-0.5,0.5-0.7,1.2-0.7,2.1c0,0.4,0.1,0.8,0.2,1.1c0.2,0.3,0.4,0.6,0.7,0.9
		c0.3,0.2,0.6,0.4,1,0.6c0.4,0.1,0.8,0.2,1.2,0.2c0.4,0,0.7-0.1,1.1-0.2c0.3-0.1,0.7-0.3,0.9-0.5c0.3-0.2,0.5-0.5,0.7-0.8
		c0.2-0.3,0.3-0.7,0.3-1.2l-1.6-0.4c-0.2-0.1-0.3-0.2-0.3-0.4c0-0.1,0-0.1,0-0.2l0.1-0.6c0-0.1,0.1-0.2,0.2-0.3
		c0.1-0.1,0.2-0.1,0.3-0.1c0,0,0,0,0.1,0c0,0,0,0,0.1,0l4.3,1.1c0.1,0,0.1,0,0.2,0c0.1,0,0.1,0,0.2,0c0.3,0,0.6-0.1,0.8-0.2
		c0.3-0.2,0.4-0.4,0.5-0.7l0-0.1c0.1-0.2,0.2-0.3,0.4-0.3c0,0,0.1,0,0.1,0c0,0,0.1,0,0.1,0l0.6,0.1c0.2,0.1,0.3,0.2,0.3,0.4
		C190.9,432.4,190.9,432.4,190.9,432.5C190.9,432.4,190.9,432.5,190.9,432.5z"/>
	<path d="M221.2,437.9h-0.9c-0.1,0-0.3-0.1-0.3-0.2l-8.4-11v10.8c0,0.3-0.1,0.4-0.4,0.4h-0.8c-0.3,0-0.4-0.1-0.4-0.4v-12.8
		c0-0.1,0-0.2,0.1-0.3c0.1-0.1,0.2-0.1,0.3-0.1h1c0.1,0,0.3,0.1,0.3,0.2l8.2,10.7v-10.6c0-0.2,0.2-0.3,0.4-0.3h0.8
		c0.1,0,0.2,0,0.3,0.1s0.1,0.2,0.1,0.3v12.8C221.6,437.8,221.5,437.9,221.2,437.9z"/>
	<path d="M231.7,424.7v7.7c0,0.6,0.1,1.1,0.3,1.7c0.2,0.5,0.5,1,0.8,1.3c0.3,0.4,0.8,0.7,1.3,0.9c0.5,0.2,1,0.3,1.7,0.3
		c0.6,0,1.2-0.1,1.7-0.3c0.5-0.2,0.9-0.5,1.3-0.9s0.6-0.8,0.8-1.3c0.2-0.5,0.3-1.1,0.3-1.7v-7.7c0-0.1,0-0.2,0.1-0.3
		c0.1-0.1,0.2-0.1,0.3-0.1h0.7c0.1,0,0.2,0,0.3,0.1c0.1,0.1,0.1,0.2,0.1,0.3v7.8c0,0.8-0.1,1.6-0.4,2.3c-0.3,0.7-0.7,1.3-1.2,1.8
		s-1.1,0.9-1.8,1.1c-0.7,0.3-1.4,0.4-2.2,0.4s-1.5-0.1-2.2-0.4c-0.7-0.3-1.3-0.7-1.8-1.2c-0.5-0.5-0.9-1.1-1.2-1.8
		c-0.3-0.7-0.4-1.4-0.4-2.2v-7.8c0-0.1,0-0.2,0.1-0.3c0.1-0.1,0.2-0.1,0.3-0.1h0.8c0.1,0,0.2,0,0.3,0.1
		C231.7,424.5,231.7,424.6,231.7,424.7z"/>
	<path d="M249.2,424.3h9.4c0.1,0,0.2,0,0.3,0.1c0.1,0.1,0.1,0.2,0.1,0.3v0.8c0,0.1,0,0.2-0.1,0.3c-0.1,0.1-0.2,0.1-0.3,0.1h-3.9
		v11.6c0,0.1,0,0.2-0.1,0.3c-0.1,0.1-0.2,0.1-0.3,0.1h-0.8c-0.1,0-0.2,0-0.3-0.1c-0.1-0.1-0.1-0.2-0.1-0.3v-11.6h-3.9
		c-0.3,0-0.4-0.1-0.4-0.4v-0.8C248.8,424.4,248.9,424.3,249.2,424.3z"/>
	<path d="M266.9,437.5v-12.8c0-0.3,0.1-0.4,0.4-0.4h5.3c0.6,0,1.2,0.1,1.7,0.3c0.5,0.2,1,0.5,1.4,0.9s0.7,0.9,0.9,1.4
		c0.2,0.5,0.3,1.1,0.3,1.7c0,0.9-0.2,1.7-0.7,2.3c-0.5,0.7-1.1,1.2-1.8,1.6l2.4,5c0,0.1,0,0.2,0,0.2c0,0.2-0.1,0.2-0.3,0.2h-1
		c-0.1,0-0.2,0-0.3-0.1c-0.1-0.1-0.1-0.1-0.2-0.3l-2.2-4.7c0,0-0.1,0-0.2,0c-0.1,0-0.2,0-0.3,0c-0.1,0-0.2,0-0.3,0s-0.2,0-0.3,0
		h-3.2v4.6c0,0.3-0.1,0.4-0.4,0.4h-0.8C267,437.9,266.9,437.8,266.9,437.5z M275.3,428.6c0-0.4-0.1-0.7-0.2-1
		c-0.1-0.3-0.3-0.6-0.6-0.9c-0.2-0.3-0.5-0.5-0.9-0.6c-0.3-0.2-0.7-0.2-1.1-0.2h-4.1v5.5h4.1c0.4,0,0.8-0.1,1.1-0.2
		c0.3-0.1,0.6-0.3,0.9-0.6c0.2-0.3,0.4-0.5,0.6-0.9C275.3,429.3,275.3,429,275.3,428.6z"/>
	<path d="M286.6,424.7v12.8c0,0.3-0.1,0.4-0.4,0.4h-0.8c-0.3,0-0.4-0.1-0.4-0.4v-12.8c0-0.3,0.1-0.4,0.4-0.4h0.8
		C286.4,424.3,286.6,424.4,286.6,424.7z"/>
	<path d="M294.6,424.3h9.4c0.1,0,0.2,0,0.3,0.1c0.1,0.1,0.1,0.2,0.1,0.3v0.8c0,0.1,0,0.2-0.1,0.3c-0.1,0.1-0.2,0.1-0.3,0.1h-3.9
		v11.6c0,0.1,0,0.2-0.1,0.3c-0.1,0.1-0.2,0.1-0.3,0.1H299c-0.1,0-0.2,0-0.3-0.1c-0.1-0.1-0.1-0.2-0.1-0.3v-11.6h-3.9
		c-0.3,0-0.4-0.1-0.4-0.4v-0.8C294.2,424.4,294.4,424.3,294.6,424.3z"/>
	<path d="M313.9,424.7v12.8c0,0.3-0.1,0.4-0.4,0.4h-0.8c-0.3,0-0.4-0.1-0.4-0.4v-12.8c0-0.3,0.1-0.4,0.4-0.4h0.8
		C313.8,424.3,313.9,424.4,313.9,424.7z"/>
	<path d="M329,424.1c1,0,1.9,0.2,2.7,0.6s1.6,0.9,2.2,1.5c0.6,0.6,1.1,1.4,1.5,2.2c0.4,0.9,0.5,1.8,0.5,2.8c0,1-0.2,1.9-0.5,2.7
		c-0.4,0.8-0.9,1.6-1.5,2.2c-0.6,0.6-1.4,1.1-2.2,1.5s-1.8,0.6-2.7,0.6c-1,0-1.9-0.2-2.7-0.6s-1.6-0.9-2.2-1.5
		c-0.6-0.6-1.1-1.4-1.5-2.2s-0.6-1.8-0.6-2.7s0.2-1.9,0.6-2.7s0.9-1.6,1.5-2.2c0.6-0.6,1.4-1.1,2.2-1.5
		C327.1,424.3,328,424.1,329,424.1z M323.6,431.1c0,0.7,0.1,1.5,0.4,2.1c0.3,0.7,0.7,1.2,1.2,1.7c0.5,0.5,1.1,0.9,1.7,1.2
		c0.7,0.3,1.4,0.4,2.1,0.4c0.7,0,1.4-0.1,2.1-0.4c0.7-0.3,1.2-0.7,1.7-1.2c0.5-0.5,0.9-1.1,1.2-1.7c0.3-0.7,0.4-1.4,0.4-2.1
		s-0.1-1.4-0.4-2.1s-0.7-1.2-1.2-1.7s-1.1-0.9-1.7-1.2c-0.7-0.3-1.4-0.4-2.1-0.4c-0.7,0-1.5,0.1-2.1,0.4c-0.7,0.3-1.2,0.7-1.7,1.2
		c-0.5,0.5-0.9,1.1-1.2,1.7C323.7,429.7,323.6,430.4,323.6,431.1z"/>
	<path d="M355.3,437.9h-0.9c-0.1,0-0.3-0.1-0.3-0.2l-8.4-11v10.8c0,0.3-0.1,0.4-0.4,0.4h-0.8c-0.3,0-0.4-0.1-0.4-0.4v-12.8
		c0-0.1,0-0.2,0.1-0.3c0.1-0.1,0.2-0.1,0.3-0.1h1c0.1,0,0.3,0.1,0.3,0.2l8.2,10.7v-10.6c0-0.2,0.2-0.3,0.4-0.3h0.8
		c0.1,0,0.2,0,0.3,0.1s0.1,0.2,0.1,0.3v12.8C355.7,437.8,355.5,437.9,355.3,437.9z"/>
</g>
</svg>
